<svg width="320" height="320" viewBox="0 0 320 320" fill="none" xmlns="http://www.w3.org/2000/svg">
<rect width="320" height="320" rx="32" fill="white"/>
<g clip-path="url(#clip0_116_43)">
<path d="M123.403 217H93.3239C93.6709 217 94.763 215.501 95.0386 215.22C95.6204 214.543 96.1716 213.856 96.7023 213.137C97.9944 211.329 99.0256 209.341 99.7644 207.234C102.367 200.039 102.194 191.616 99.2745 185.223C96.2124 178.507 91.4662 172.625 88.1286 167.065C82.7087 158.027 78.9424 147.896 79.7079 137.12C80.3366 129.927 83.1765 123.12 87.8224 117.671H116.8C108.634 125.615 106.174 136.777 109.093 148.271C110.676 154.612 114.687 160.557 117.82 165.43C121.087 170.542 124.475 175.727 126.894 181.298C129.893 188.156 130.752 195.789 129.354 203.163C128.678 206.713 127.481 210.139 125.802 213.325C125.516 213.814 124.057 217 123.403 217Z" fill="#00A3C9"/>
<path d="M140.112 187.993H190.075V104H124.322C119.351 108.446 116.31 117.379 118.494 126.521C120.209 133.684 125.282 140.15 129.813 146.303C136.958 156.039 144.858 166.992 142.674 179.965C142.242 182.762 141.378 185.472 140.112 187.993Z" fill="#5AC5C4"/>
<path d="M28 104V187.992H77.1664C79.5242 182.61 78.6566 176.3 77.0848 172.375C72.3386 160.547 64.612 154.154 60.3149 143.825C56.2322 134.049 55.7831 125.084 59.2942 112.267C60.2699 109.419 61.4222 106.637 62.7441 103.938L28 104Z" fill="#00678F"/>
<path d="M291 104H250.173V170.636C250.173 170.98 250.111 172.593 250.03 174.238C249.57 184.65 247.172 186.733 244.62 188.013H291V104Z" fill="#00A3C9"/>
<path d="M201.18 117.744V201.039V202.382C201.306 205.922 202.764 209.276 205.251 211.748C207.739 214.22 211.064 215.62 214.536 215.656C218.009 215.692 221.362 214.362 223.898 211.943C226.434 209.523 227.959 206.2 228.156 202.663V201.039V117.744H201.18Z" fill="#00678F"/>
</g>
<defs>
<clipPath id="clip0_116_43">
<rect width="263" height="113" fill="white" transform="translate(28 104)"/>
</clipPath>
</defs>
</svg>
